<svg xmlns="http://www.w3.org/2000/svg" width="64" height="64"><g transform="translate(0 -1004.362)"><circle cx="24" cy="1028.362" r="24" fill="#1d67b1"/><path style="line-height:normal;-inkscape-font-specification:Sans;text-indent:0;text-align:start;text-decoration-line:none;text-transform:none;block-progression:tb;marker:none" fill="#3ebc98" d="M87.656 1288.847a.562.562 0 0 0-.406.531v3.813c0 .753.396 1.42 1 1.813v2.906c.122 1.732.789 2.943 1.719 3.687-.11.86-.478 1.356-1.094 1.813-.728.54-1.788.96-2.906 1.437-1.118.478-2.306 1.052-3.219 2.063-.913 1.01-1.5 2.426-1.5 4.468v.376l.313.125c2.862 1.242 4.308 1.878 5.03 2.187.362.154.524.24.626.281.05.02.07.015.125.031.014 0 .035.026.062.031h.032c.082.033.257.106.593.25.704.3 2.103.895 4.938 2.125l.219.094.218-.094a491.932 491.932 0 0 1 5.063-2.125c.353-.145.533-.246.625-.281h.031c.054-.01.103-.024.125-.031.043-.014.044-.011.094-.031.1-.041.302-.128.656-.281.708-.307 2.12-.929 4.938-2.157l.312-.124v-.375c0-1.994-.593-3.398-1.5-4.375-.907-.978-2.083-1.503-3.188-1.97-1.104-.466-2.157-.882-2.874-1.437-.705-.544-1.11-1.171-1.126-2.375.972-.803 1.646-1.932 1.688-3.312v-4.875c0-1.746-1.322-3.188-3-3.188h-6c-.343 0-.625-.056-.75-.125-.124-.069-.156-.08-.156-.344.003-.334-.364-.618-.688-.53z" color="#000" font-family="Sans" font-weight="400" overflow="visible" transform="matrix(-.5672 0 0 .5672 86.087 288.402)"/><path fill="#e8e8f0" d="M33.191 1027.764a.83.83 0 0 1 .831.83.801.801 0 0 1-.282.61c-.013.015-.21.157-.12.43l.684 3.756-1.113.574-1.134-.568.672-3.761c.09-.331-.117-.432-.117-.432a.864.864 0 0 1-.251-.608.83.83 0 0 1 .83-.831z"/><path style="line-height:normal;-inkscape-font-specification:Sans;text-indent:0;text-align:start;text-decoration-line:none;text-transform:none;block-progression:tb;marker:none" fill="#3ebc98" d="M87.656 1288.847a.562.562 0 0 0-.406.531v3.813c0 .753.396 1.42 1 1.813v2.906c.122 1.732.789 2.943 1.719 3.687-.11.86-.478 1.356-1.094 1.813-.728.54-1.788.96-2.906 1.437-1.118.478-2.306 1.052-3.219 2.063-.913 1.01-1.5 2.426-1.5 4.468v.376l.313.125c2.862 1.242 4.308 1.878 5.03 2.187.362.154.524.24.626.281.05.02.07.015.125.031.014 0 .035.026.062.031h.032c.082.033.257.106.593.25.704.3 2.103.895 4.938 2.125l.219.094.218-.094a491.932 491.932 0 0 1 5.063-2.125c.353-.145.533-.246.625-.281h.031c.054-.01.103-.024.125-.031.043-.014.044-.011.094-.031.1-.041.302-.128.656-.281.708-.307 2.12-.929 4.938-2.157l.312-.124v-.375c0-1.994-.593-3.398-1.5-4.375-.907-.978-2.083-1.503-3.188-1.97-1.104-.466-2.157-.882-2.874-1.437-.705-.544-1.11-1.171-1.126-2.375.972-.803 1.646-1.932 1.688-3.312v-4.875c0-1.746-1.322-3.188-3-3.188h-6c-.343 0-.625-.056-.75-.125-.124-.069-.156-.08-.156-.344.003-.334-.364-.618-.688-.53z" color="#000" font-family="Sans" font-weight="400" overflow="visible" transform="translate(-38.09 288.402) scale(.56724)"/><path fill="#e8e8f0" d="M14.806 1027.764a.83.83 0 0 0-.83.83c0 .243.105.454.281.61.014.015.21.157.121.43l-.684 3.756 1.112.574 1.135-.568-.673-3.761c-.089-.331.117-.432.117-.432a.864.864 0 0 0 .252-.608.83.83 0 0 0-.83-.831z"/><path style="line-height:normal;-inkscape-font-specification:Sans;text-indent:0;text-align:start;text-decoration-line:none;text-transform:none;block-progression:tb;marker:none" fill="#435270" d="M87.656 1288.847a.562.562 0 0 0-.406.531v3.813c0 .753.396 1.42 1 1.813v2.906c.122 1.732.789 2.943 1.719 3.687-.11.86-.478 1.356-1.094 1.813-.728.54-1.788.96-2.906 1.437-1.118.478-2.306 1.052-3.219 2.063-.913 1.01-1.5 2.426-1.5 4.468v.376l.313.125c2.862 1.242 4.308 1.878 5.03 2.187.362.154.524.24.626.281.05.02.07.015.125.031.014 0 .035.026.062.031h.032c.082.033.257.106.593.25.704.3 2.103.895 4.938 2.125l.219.094.218-.094a491.932 491.932 0 0 1 5.063-2.125c.353-.145.533-.246.625-.281h.031c.054-.01.103-.024.125-.031.043-.014.044-.011.094-.031.1-.041.302-.128.656-.281.708-.307 2.12-.929 4.938-2.157l.312-.124v-.375c0-1.994-.593-3.398-1.5-4.375-.907-.978-2.083-1.503-3.188-1.97-1.104-.466-2.157-.882-2.874-1.437-.705-.544-1.11-1.171-1.126-2.375.972-.803 1.646-1.932 1.688-3.312v-4.875c0-1.746-1.322-3.188-3-3.188h-6c-.343 0-.625-.056-.75-.125-.124-.069-.156-.08-.156-.344.003-.334-.364-.618-.688-.53z" color="#000" font-family="Sans" font-weight="400" overflow="visible" transform="translate(-50.178 -8.165) scale(.79546)"/><path fill="#e8e8f0" d="M23.999 1028.663c-.644 0-1.165.522-1.165 1.166 0 .339.147.635.395.853.019.022.295.22.17.605l-.96 5.266 1.56.805 1.59-.796-.942-5.275c-.125-.465.164-.605.164-.605.222-.216.352-.535.353-.853 0-.644-.522-1.166-1.165-1.166z"/></g></svg>